PathFileType	4	(X/Y/Z)	C:/Users/opensim2020/Desktop/walking_exp_matlab/subject03_walking05_straight_01.trc	
DataRate	CameraRate	NumFrames	NumMarkers	Units	OrigDataRate	OrigDataStartFrame	OrigNumFrames	
100.00	100.00	4	45	mm	100.00	913	298	
Frame#	Time	LFHD			RFHD			LBHD			RBHD			C7			T10			CLAV			STRN			RBAK			LSHO			LUPA			LELB			LFRM			LWRA			LWRB			LFIN			RSHO			RUPA			RELB			RFRM			RWRA			RWRB			RFIN			LASI			RASI			LPSI			RPSI			LTHI			LKNE			LTIB			LANK			LHEE			LTOE			RTHI			RKNE			RTIB			RANK			RHEE			RTOE			*39			*40			*41			*42			*43			*44			
		X1	Y1	Z1	X2	Y2	Z2	X3	Y3	Z3	X4	Y4	Z4	X5	Y5	Z5	X6	Y6	Z6	X7	Y7	Z7	X8	Y8	Z8	X9	Y9	Z9	X10	Y10	Z10	X11	Y11	Z11	X12	Y12	Z12	X13	Y13	Z13	X14	Y14	Z14	X15	Y15	Z15	X16	Y16	Z16	X17	Y17	Z17	X18	Y18	Z18	X19	Y19	Z19	X20	Y20	Z20	X21	Y21	Z21	X22	Y22	Z22	X23	Y23	Z23	X24	Y24	Z24	X25	Y25	Z25	X26	Y26	Z26	X27	Y27	Z27	X28	Y28	Z28	X29	Y29	Z29	X30	Y30	Z30	X31	Y31	Z31	X32	Y32	Z32	X33	Y33	Z33	X34	Y34	Z34	X35	Y35	Z35	X36	Y36	Z36	X37	Y37	Z37	X38	Y38	Z38	X39	Y39	Z39	X40	Y40	Z40	X41	Y41	Z41	X42	Y42	Z42	X43	Y43	Z43	X44	Y44	Z44	X45	Y45	Z45	

187	1.860	-1072.78296	462.01935	1605.65588	-942.00659	436.24591	1605.64783	-1094.87476	332.74924	1571.57080	-965.52576	312.48419	1570.84863	-1038.23413	288.33578	1402.88379	-1031.36694	261.51227	1087.40027	-1031.01135	411.34424	1328.46838	-1038.85742	460.21854	1165.48376	-946.50067	234.15985	1222.24146	-1188.28027	371.05685	1365.43079	-1267.39661	395.51425	1176.01526	-1284.39978	437.53421	1062.47705	-1275.77722	525.09216	969.17010	-1235.37769	605.61237	888.45172	-1284.65552	585.29565	872.89520	-1272.17090	651.01251	825.34015	-872.63373	354.89264	1348.26013	-806.91620	339.92780	1123.79590	-797.03864	346.04926	1009.89490	-797.95306	346.74402	872.51501	-836.12415	363.97388	774.29614	-790.57043	333.96182	772.72357	-804.20203	344.85675	698.78394	-1153.88452	421.53998	921.01208	-917.03290	441.64847	931.04510	-1088.85046	264.48965	945.19623	-940.93042	277.18777	956.09955	-1191.66333	318.55115	627.37134	-1165.82544	282.11737	450.79410	-1158.00366	137.07478	308.12857	-1110.37256	13.32567	139.09123	-1071.01306	-35.15668	135.20714	-1077.74414	116.25889	27.60501	-874.60425	436.42191	639.28601	-917.41534	495.27209	468.90369	-914.46185	495.78055	279.90399	-964.23053	523.00354	66.31124	-1016.62225	480.29373	34.95451	-981.92859	665.62622	33.81665	-1035.21741	375.32095	1670.94885															 
188	1.870	-1072.07788	473.01886	1607.45813	-941.34290	447.44507	1607.54321	-1093.99316	343.67383	1573.88904	-964.63959	323.64920	1573.29041	-1037.29834	299.19977	1405.04736	-1030.96460	272.76660	1089.30298	-1030.22693	422.18057	1330.76843	-1038.04590	471.65265	1167.99609	-945.36548	245.58881	1224.25659	-1187.32007	381.57153	1368.05396	-1265.84839	404.97137	1178.16223	-1282.31921	445.96545	1064.15283	-1274.32788	531.65790	968.96832	-1234.42273	610.72668	886.51709	-1283.72644	589.72723	871.38495	-1271.59692	654.67407	822.61060	-871.93335	365.93423	1350.86133	-806.27637	352.39734	1126.28088	-796.65491	358.96906	1012.45245	-797.20270	360.09943	875.17151	-835.33276	377.10556	776.87781	-789.50903	347.41660	775.31335	-803.46967	358.07281	701.23383	-1152.48120	433.87085	922.92444	-916.11908	452.97409	934.30963	-1088.92041	276.78024	947.02429	-940.93982	288.51080	959.35437	-1192.22998	334.06766	627.84357	-1168.32605	300.84442	450.55240	-1159.65417	152.68056	311.13535	-1111.28931	24.25368	146.56999	-1071.23865	-23.48527	145.85448	-1077.33008	117.62280	27.45937	-873.36206	446.52350	641.58954	-915.66595	501.38937	470.21457	-913.31604	497.82108	280.22946	-963.93036	522.34521	66.36788	-1016.16351	480.00577	34.90924	-981.90350	665.42145	33.72314	-1034.42798	386.69992	1673.01965															 
189	1.880	-1071.44116	484.01971	1609.06836	-940.68146	458.65726	1609.26147	-1093.15613	354.49490	1576.00073	-963.79828	334.62863	1575.50720	-1036.34924	309.85956	1407.01428	-1030.57361	283.82761	1091.23108	-1029.49634	432.95779	1332.96399	-1037.25989	482.90521	1170.36377	-944.19055	257.04004	1226.26624	-1186.30396	391.96616	1370.65698	-1264.29822	414.42484	1180.35583	-1280.08020	454.21472	1065.77942	-1272.79797	537.97852	968.80511	-1233.55054	615.52600	884.47247	-1282.72351	593.65698	869.80475	-1270.99951	657.68689	819.48840	-871.28735	376.94830	1353.46838	-805.53546	364.71805	1128.87488	-796.08813	371.87762	1015.16083	-796.16321	373.33136	877.91425	-834.44165	390.79620	779.63843	-788.40338	361.35110	778.02783	-802.58667	371.64899	703.65222	-1150.62854	446.40894	925.14044	-915.10748	463.96439	937.39008	-1088.76575	288.61938	948.89270	-940.89844	299.78766	962.25885	-1192.90295	349.88058	628.11548	-1170.47986	320.32755	450.14377	-1161.10742	169.67641	313.80560	-1112.72302	36.81747	153.51401	-1072.04382	-9.98307	156.35974	-1077.55750	119.44810	27.51370	-872.03534	455.98480	643.48413	-913.97791	506.79840	471.26041	-912.26404	500.06567	280.60974	-963.47052	522.15405	66.74391	-1015.74542	479.66959	34.94521	-981.73755	665.25562	33.62640	-1032.99573	397.60074	1675.96301															 
190	1.890	-1070.86731	494.98187	1610.48438	-940.05005	469.80499	1610.68567	-1092.42981	365.30826	1577.85571	-963.01129	345.62885	1577.38794	-1035.54492	320.45609	1408.58984	-1030.07874	294.64758	1092.93762	-1028.85583	443.63232	1334.87634	-1036.62891	494.17007	1172.54553	-943.00989	268.47253	1228.20642	-1185.27576	402.26770	1373.05566	-1262.69214	423.93826	1182.53308	-1278.03113	462.36749	1067.40210	-1271.43079	544.02466	968.53418	-1232.71912	619.95575	882.23041	-1281.84949	597.52277	868.21484	-1270.39539	660.28265	815.98395	-870.70453	387.90210	1355.93628	-804.61267	376.94101	1131.42017	-795.34821	384.72583	1017.84601	-795.36853	387.17752	880.73413	-833.49426	404.80780	782.37817	-787.24139	375.69104	780.72156	-801.60608	385.84290	706.11047	-1149.34119	457.76578	926.95367	-913.94904	474.68268	940.02307	-1088.54883	300.16202	950.77881	-940.73956	310.91107	964.73602	-1193.43030	366.00684	628.09479	-1172.13232	340.36526	449.50800	-1162.26013	187.92917	315.97586	-1114.53650	51.10065	159.76498	-1073.58240	4.81998	166.69096	-1079.22827	121.97155	28.03492	-871.04095	464.35260	644.90118	-912.65332	512.00128	471.94742	-911.17383	503.13376	281.01294	-963.33099	522.20654	66.84000	-1015.49042	479.62170	34.98187	-981.74988	665.32343	33.53540	-1032.97961	409.36456	1676.50391															 
